<svg width="72" height="33" viewBox="0 0 72 33" fill="none" xmlns="http://www.w3.org/2000/svg">
    <path d="M6.384 21.336C5.296 21.336 4.328 21.072 3.48 20.544C2.632 20 1.968 19.248 1.488 18.288C1.024 17.328 0.792 16.232 0.792 15C0.792 13.72 1.056 12.592 1.584 11.616C2.112 10.624 2.832 9.856 3.744 9.312C4.672 8.752 5.712 8.472 6.864 8.472C8.208 8.472 9.32 8.84 10.2 9.576C11.096 10.296 11.632 11.28 11.808 12.528L8.928 14.136C8.928 12.504 8.72 11.208 8.304 10.248C7.888 9.304 7.304 8.832 6.552 8.832C6.04 8.832 5.592 9.04 5.208 9.456C4.84 9.872 4.552 10.432 4.344 11.136C4.152 11.84 4.056 12.624 4.056 13.488C4.056 14.592 4.224 15.568 4.56 16.416C4.896 17.248 5.368 17.904 5.976 18.384C6.584 18.848 7.304 19.08 8.136 19.08C8.904 19.08 9.632 18.888 10.32 18.504C11.024 18.12 11.6 17.6 12.048 16.944L12.288 17.016C12.016 17.88 11.584 18.64 10.992 19.296C10.4 19.936 9.704 20.44 8.904 20.808C8.12 21.16 7.28 21.336 6.384 21.336ZM12.4258 21V20.76H12.4498C13.0258 20.76 13.4898 20.584 13.8418 20.232C14.1938 19.88 14.3698 19.416 14.3698 18.84V10.968C14.3698 10.36 14.2418 9.888 13.9858 9.552C13.7458 9.216 13.2258 9.048 12.4258 9.048V8.808H14.8738C15.6898 8.808 16.3138 8.72 16.7458 8.544C17.1458 8.368 17.4258 8.152 17.5858 7.896H17.8258V18.84C17.8258 19.416 18.0018 19.88 18.3538 20.232C18.7058 20.584 19.1698 20.76 19.7458 20.76H19.7698V21H12.4258ZM16.0738 6.384C15.4978 6.384 15.0178 6.2 14.6338 5.832C14.2658 5.448 14.0818 4.968 14.0818 4.392C14.0818 3.816 14.2658 3.344 14.6338 2.976C15.0178 2.592 15.4978 2.4 16.0738 2.4C16.6338 2.4 17.0978 2.592 17.4658 2.976C17.8498 3.36 18.0418 3.832 18.0418 4.392C18.0418 4.952 17.8498 5.424 17.4658 5.808C17.0978 6.192 16.6338 6.384 16.0738 6.384ZM19.5268 21V20.76H19.5508C20.1268 20.76 20.5908 20.584 20.9428 20.232C21.2948 19.88 21.4708 19.416 21.4708 18.84V10.968C21.4708 10.36 21.3428 9.888 21.0868 9.552C20.8468 9.216 20.3268 9.048 19.5268 9.048V8.808H21.9028C22.7188 8.808 23.3428 8.72 23.7748 8.544C24.1748 8.368 24.4548 8.152 24.6148 7.896H24.8548L24.8788 11.256C25.2948 10.424 25.9268 9.752 26.7748 9.24C27.6228 8.728 28.5188 8.472 29.4628 8.472C30.5348 8.472 31.3908 8.824 32.0308 9.528C32.6868 10.232 33.0148 11.16 33.0148 12.312V18.84C33.0148 19.416 33.1908 19.88 33.5428 20.232C33.8948 20.584 34.3588 20.76 34.9348 20.76H34.9588V21H27.6388V20.76H27.6628C28.2388 20.76 28.7028 20.584 29.0548 20.232C29.4068 19.88 29.5828 19.416 29.5828 18.84V12.072C29.5828 11.272 29.4228 10.632 29.1028 10.152C28.7988 9.672 28.3908 9.432 27.8788 9.432C27.3828 9.432 26.8628 9.648 26.3188 10.08C25.7908 10.496 25.3268 11.064 24.9268 11.784V18.84C24.9268 19.416 25.1028 19.88 25.4548 20.232C25.8068 20.584 26.2708 20.76 26.8468 20.76H26.8708V21H19.5268ZM40.4873 21.288C39.3833 21.288 38.3993 21.016 37.5353 20.472C36.6873 19.928 36.0233 19.176 35.5433 18.216C35.0633 17.24 34.8232 16.128 34.8232 14.88C34.8232 13.6 35.0872 12.48 35.6152 11.52C36.1433 10.56 36.8633 9.816 37.7753 9.288C38.7033 8.744 39.7513 8.472 40.9193 8.472C41.8953 8.472 42.7593 8.664 43.5113 9.048C44.2793 9.432 44.8873 9.976 45.3353 10.68C45.7993 11.368 46.0633 12.168 46.1273 13.08L46.1512 13.44H38.0873V13.56C38.0873 15.256 38.4633 16.616 39.2153 17.64C39.9673 18.648 40.9753 19.152 42.2393 19.152C43.0073 19.152 43.7353 18.968 44.4233 18.6C45.1273 18.216 45.6953 17.704 46.1273 17.064L46.3433 17.136C46.0713 17.952 45.6473 18.672 45.0713 19.296C44.4953 19.92 43.8153 20.408 43.0313 20.76C42.2473 21.112 41.3993 21.288 40.4873 21.288ZM38.1113 13.08H42.9833C42.9833 11.816 42.7753 10.792 42.3593 10.008C41.9593 9.224 41.3913 8.832 40.6553 8.832C39.9513 8.832 39.3673 9.216 38.9033 9.984C38.4393 10.752 38.1753 11.784 38.1113 13.08ZM39.2633 7.056L39.0953 6.816L42.3833 2.184H42.5033L44.0633 3.576V3.696L39.2633 7.056ZM63.6419 15.96C63.8152 15.96 63.9285 16 63.9819 16.08C64.0485 16.16 64.0819 16.3 64.0819 16.5C64.0819 17.1933 63.8085 17.8933 63.2619 18.6C62.7285 19.2933 62.0419 19.8667 61.2019 20.32C60.3752 20.7733 59.5619 21 58.7619 21C58.0552 21 57.4952 20.8133 57.0819 20.44C56.6685 20.0667 56.4619 19.56 56.4619 18.92C56.4619 18.5867 56.5085 18.2 56.6019 17.76C56.6952 17.3067 56.8419 16.6867 57.0419 15.9C57.2952 14.94 57.4219 14.36 57.4219 14.16C57.4219 14.1067 57.4085 14.0667 57.3819 14.04C57.3685 14.0133 57.3219 14 57.2419 14L56.5619 14.04C55.2685 14.1467 54.1019 14.2133 53.0619 14.24C52.5152 16.8933 52.0685 19.0067 51.7219 20.58C51.1885 23.0067 50.4352 25.0933 49.4619 26.84C48.5019 28.6 47.4552 29.9333 46.3219 30.84C45.1885 31.7467 44.0952 32.2 43.0419 32.2C42.3085 32.2 41.6285 31.98 41.0019 31.54C40.3752 31.1133 39.8819 30.54 39.5219 29.82C39.1485 29.1 38.9619 28.3267 38.9619 27.5C38.9619 26.8467 39.0819 26.2933 39.3219 25.84C39.5485 25.3867 39.8885 25.16 40.3419 25.16C40.5685 25.16 40.8552 25.2067 41.2019 25.3C41.0419 25.5933 40.9152 25.96 40.8219 26.4C40.7152 26.84 40.6619 27.2533 40.6619 27.64C40.6619 28.2667 40.7952 28.84 41.0619 29.36C41.3285 29.88 41.7019 30.2867 42.1819 30.58C42.6485 30.8867 43.1685 31.04 43.7419 31.04C44.9419 31.04 45.9885 30.32 46.8819 28.88C47.7752 27.4533 48.6219 25.1933 49.4219 22.1C49.8485 20.46 50.4352 17.8467 51.1819 14.26C49.9152 14.2467 48.6552 14.18 47.4019 14.06C47.3485 13.9667 47.3019 13.8533 47.2619 13.72C47.2352 13.5733 47.2285 13.4467 47.2419 13.34C47.2552 13.2467 47.2885 13.18 47.3419 13.14C47.3952 13.1 47.5019 13.08 47.6619 13.08L48.4619 13.12C49.4752 13.2133 50.4485 13.2667 51.3819 13.28C52.0085 10.2533 52.8819 7.72667 54.0019 5.7C55.1219 3.66 56.5952 2.64 58.4219 2.64C59.1285 2.64 59.7419 2.79333 60.2619 3.1C60.7819 3.39333 61.0419 3.76 61.0419 4.2C61.0419 4.46667 60.9419 4.75333 60.7419 5.06C60.5552 5.35333 60.3285 5.56667 60.0619 5.7C59.7952 5.14 59.4752 4.73333 59.1019 4.48C58.7285 4.21333 58.2752 4.08 57.7419 4.08C56.8752 4.08 56.1885 4.42 55.6819 5.1C55.1752 5.76667 54.7619 6.68 54.4419 7.84C54.1352 8.98667 53.7352 10.7933 53.2419 13.26C54.5752 13.22 56.0085 13.12 57.5419 12.96C58.1685 12.8933 58.5552 12.86 58.7019 12.86C59.1552 12.86 59.3819 13.06 59.3819 13.46C59.3819 13.6867 59.3085 14.06 59.1619 14.58C59.0285 15.0867 58.9485 15.3867 58.9219 15.48C58.6952 16.24 58.5152 16.9 58.3819 17.46C58.2619 18.02 58.2019 18.5067 58.2019 18.92C58.2019 19.3333 58.2819 19.62 58.4419 19.78C58.6152 19.94 58.8819 20.02 59.2419 20.02C59.8952 20.02 60.5285 19.82 61.1419 19.42C61.7685 19.02 62.3019 18.5067 62.7419 17.88C63.1819 17.2533 63.4819 16.6133 63.6419 15.96ZM59.5619 8.02C59.8819 8.02 60.1285 8.10667 60.3019 8.28C60.4752 8.45333 60.5619 8.7 60.5619 9.02C60.5619 9.43333 60.4352 9.78667 60.1819 10.08C59.9285 10.3733 59.6019 10.52 59.2019 10.52C58.8819 10.52 58.6352 10.4267 58.4619 10.24C58.3019 10.0533 58.2219 9.8 58.2219 9.48C58.2219 9.06667 58.3419 8.72 58.5819 8.44C58.8219 8.16 59.1485 8.02 59.5619 8.02ZM71.4378 16C71.7445 16 71.8978 16.22 71.8978 16.66C71.8978 16.8867 71.8578 17.12 71.7778 17.36C71.5911 17.9467 71.2045 18.5333 70.6178 19.12C70.0445 19.7067 69.3511 20.1933 68.5378 20.58C67.7378 20.9533 66.9111 21.14 66.0578 21.14C65.1111 21.14 64.3845 20.9 63.8778 20.42C63.3845 19.9267 63.1378 19.2533 63.1378 18.4C63.1378 17.6667 63.3045 16.36 63.6378 14.48C63.9845 12.6 64.3778 10.6533 64.8178 8.64C65.2578 6.61333 65.6045 5.14667 65.8578 4.24C66.5511 1.74667 67.5045 0.499998 68.7178 0.499998C69.3178 0.499998 69.7645 0.773332 70.0578 1.32C70.3511 1.86667 70.4978 2.56 70.4978 3.4C70.4978 5.08 69.9711 7.09333 68.9178 9.44C67.8645 11.7733 66.6045 13.98 65.1378 16.06C65.0311 16.9133 64.9778 17.5867 64.9778 18.08C64.9778 18.8267 65.0911 19.34 65.3178 19.62C65.5578 19.9 65.9245 20.04 66.4178 20.04C67.0845 20.04 67.7511 19.8467 68.4178 19.46C69.0978 19.0733 69.7045 18.5733 70.2378 17.96C70.7711 17.3333 71.1711 16.68 71.4378 16ZM67.6578 4.5C67.2711 5.92667 66.8711 7.51333 66.4578 9.26C66.0578 10.9933 65.7245 12.5867 65.4578 14.04C66.4578 12.2933 67.3245 10.42 68.0578 8.42C68.7911 6.42 69.1578 4.75333 69.1578 3.42C69.1578 3.00667 69.1178 2.66667 69.0378 2.4C68.9578 2.13333 68.8445 2 68.6978 2C68.5645 2 68.4245 2.16667 68.2778 2.5C68.1445 2.82 67.9378 3.48667 67.6578 4.5Z" fill="white"/>
</svg>
